<svg width="35" height="35" viewBox="0 0 35 35" fill="none" xmlns="http://www.w3.org/2000/svg">
<mask id="path-1-inside-1_1001_309" fill="white">
<path fill-rule="evenodd" clip-rule="evenodd" d="M4 0C2.09175 0 0.495596 1.33625 0.0961982 3.12408L32.4205 15.1688C32.7336 15.2855 32.9412 15.5844 32.9412 15.9185V20.3483C32.9412 20.9062 32.3846 21.2927 31.8618 21.0979L0 9.22553V13.4476L32.4205 25.5282C32.7336 25.6449 32.9412 25.9438 32.9412 26.2779V31.4345C32.9412 31.7686 32.7336 32.0675 32.4205 32.1841L24.8636 35H31C33.2091 35 35 33.2091 35 31V4C35 1.79086 33.2091 0 31 0H4ZM3.58993 34.9792L21.039 29.6209C21.7926 29.3895 21.7926 28.3228 21.039 28.0914L0 21.6307V31C0 33.0707 1.57343 34.7739 3.58993 34.9792Z"/>
</mask>
<g filter="url(#filter0_i_1001_309)">
<path fill-rule="evenodd" clip-rule="evenodd" d="M4 0C2.09175 0 0.495596 1.33625 0.0961982 3.12408L32.4205 15.1688C32.7336 15.2855 32.9412 15.5844 32.9412 15.9185V20.3483C32.9412 20.9062 32.3846 21.2927 31.8618 21.0979L0 9.22553V13.4476L32.4205 25.5282C32.7336 25.6449 32.9412 25.9438 32.9412 26.2779V31.4345C32.9412 31.7686 32.7336 32.0675 32.4205 32.1841L24.8636 35H31C33.2091 35 35 33.2091 35 31V4C35 1.79086 33.2091 0 31 0H4ZM3.58993 34.9792L21.039 29.6209C21.7926 29.3895 21.7926 28.3228 21.039 28.0914L0 21.6307V31C0 33.0707 1.57343 34.7739 3.58993 34.9792Z" fill="url(#paint0_radial_1001_309)"/>
</g>
<path d="M0.0961982 3.12408L-0.196585 3.05867L-0.253599 3.31389L-0.00855245 3.4052L0.0961982 3.12408ZM32.4205 15.1688L32.5253 14.8877L32.5253 14.8877L32.4205 15.1688ZM31.8618 21.0979L31.9666 20.8168L31.9666 20.8168L31.8618 21.0979ZM0 9.22553L0.104751 8.94441L-0.3 8.7936L-0.3 9.22553H0ZM0 13.4476H-0.3V13.656L-0.104751 13.7288L0 13.4476ZM32.4205 25.5282L32.5253 25.2471L32.5253 25.2471L32.4205 25.5282ZM32.4205 32.1841L32.5253 32.4652L32.5253 32.4652L32.4205 32.1841ZM24.8636 35L24.7588 34.7189L24.8636 35.3V35ZM21.039 29.6209L21.1271 29.9077L21.1271 29.9077L21.039 29.6209ZM3.58993 34.9792L3.55954 35.2777L3.61995 35.2838L3.678 35.266L3.58993 34.9792ZM21.039 28.0914L21.1271 27.8046L21.1271 27.8046L21.039 28.0914ZM0 21.6307L0.088066 21.3439L-0.3 21.2248V21.6307H0ZM0.388981 3.18949C0.758411 1.5358 2.23524 0.3 4 0.3V-0.3C1.94826 -0.3 0.232781 1.13669 -0.196585 3.05867L0.388981 3.18949ZM-0.00855245 3.4052L32.3158 15.4499L32.5253 14.8877L0.200949 2.84296L-0.00855245 3.4052ZM32.3158 15.4499C32.5114 15.5228 32.6412 15.7097 32.6412 15.9185H33.2412C33.2412 15.4591 32.9557 15.0481 32.5253 14.8877L32.3158 15.4499ZM32.6412 15.9185V20.3483H33.2412V15.9185H32.6412ZM32.6412 20.3483C32.6412 20.697 32.2933 20.9386 31.9666 20.8168L31.7571 21.3791C32.4759 21.6469 33.2412 21.1153 33.2412 20.3483H32.6412ZM31.9666 20.8168L0.104751 8.94441L-0.104751 9.50665L31.7571 21.3791L31.9666 20.8168ZM0.3 13.4476V9.22553H-0.3V13.4476H0.3ZM32.5253 25.2471L0.104751 13.1665L-0.104751 13.7288L32.3158 25.8093L32.5253 25.2471ZM33.2412 26.2779C33.2412 25.8185 32.9557 25.4075 32.5253 25.2471L32.3158 25.8093C32.5114 25.8823 32.6412 26.0691 32.6412 26.2779H33.2412ZM33.2412 31.4345V26.2779H32.6412V31.4345H33.2412ZM32.5253 32.4652C32.9557 32.3048 33.2412 31.8938 33.2412 31.4345H32.6412C32.6412 31.6433 32.5114 31.8301 32.3158 31.903L32.5253 32.4652ZM24.9683 35.2811L32.5253 32.4652L32.3158 31.903L24.7588 34.7189L24.9683 35.2811ZM31 34.7H24.8636V35.3H31V34.7ZM34.7 31C34.7 33.0435 33.0435 34.7 31 34.7V35.3C33.3748 35.3 35.3 33.3748 35.3 31H34.7ZM34.7 4V31H35.3V4H34.7ZM31 0.3C33.0435 0.3 34.7 1.95655 34.7 4H35.3C35.3 1.62518 33.3748 -0.3 31 -0.3V0.3ZM4 0.3H31V-0.3H4V0.3ZM20.951 29.3341L3.50187 34.6925L3.678 35.266L21.1271 29.9077L20.951 29.3341ZM20.951 28.3782C21.4219 28.5228 21.4219 29.1895 20.951 29.3341L21.1271 29.9077C22.1632 29.5895 22.1632 28.1228 21.1271 27.8046L20.951 28.3782ZM-0.088066 21.9175L20.951 28.3782L21.1271 27.8046L0.088066 21.3439L-0.088066 21.9175ZM0.3 31V21.6307H-0.3V31H0.3ZM3.62032 34.6808C1.75538 34.4909 0.3 32.9152 0.3 31H-0.3C-0.3 33.2262 1.39148 35.0569 3.55954 35.2777L3.62032 34.6808Z" fill="url(#paint1_linear_1001_309)" style="mix-blend-mode:overlay" mask="url(#path-1-inside-1_1001_309)"/>
<defs>
<filter id="filter0_i_1001_309" x="0" y="0" width="35" height="36" filterUnits="userSpaceOnUse" color-interpolation-filters="sRGB">
<feFlood flood-opacity="0" result="BackgroundImageFix"/>
<feBlend mode="normal" in="SourceGraphic" in2="BackgroundImageFix" result="shape"/>
<feColorMatrix in="SourceAlpha" type="matrix" values="0 0 0 0 0 0 0 0 0 0 0 0 0 0 0 0 0 0 127 0" result="hardAlpha"/>
<feOffset dy="1"/>
<feGaussianBlur stdDeviation="1"/>
<feComposite in2="hardAlpha" operator="arithmetic" k2="-1" k3="1"/>
<feColorMatrix type="matrix" values="0 0 0 0 1 0 0 0 0 1 0 0 0 0 1 0 0 0 0.32 0"/>
<feBlend mode="overlay" in2="shape" result="effect1_innerShadow_1001_309"/>
</filter>
<radialGradient id="paint0_radial_1001_309" cx="0" cy="0" r="1" gradientUnits="userSpaceOnUse" gradientTransform="translate(26.25 8.2353) rotate(111.991) scale(28.8649)">
<stop stop-color="#67CFFE"/>
<stop offset="1" stop-color="#28BCFF"/>
</radialGradient>
<linearGradient id="paint1_linear_1001_309" x1="17.5" y1="0" x2="17.5" y2="3" gradientUnits="userSpaceOnUse">
<stop stop-color="white" stop-opacity="0.48"/>
<stop offset="1" stop-color="white" stop-opacity="0"/>
</linearGradient>
</defs>
</svg>
