<?xml version="1.0" standalone="no"?>
<!DOCTYPE svg PUBLIC "-//W3C//DTD SVG 20010904//EN"
 "http://www.w3.org/TR/2001/REC-SVG-20010904/DTD/svg10.dtd">
<svg version="1.0" xmlns="http://www.w3.org/2000/svg"
 width="700.000000pt" height="700.000000pt" viewBox="0 0 700.000000 700.000000"
 preserveAspectRatio="xMidYMid meet">
<metadata>
Created by potrace 1.14, written by Peter Selinger 2001-2017
</metadata>
<g transform="translate(0.000000,700.000000) scale(0.100000,-0.100000)"
fill="#000000" stroke="none">
<path d="M689 6996 c-2 -2 -22 -6 -45 -9 -22 -3 -61 -13 -85 -22 -24 -9 -48
-17 -54 -18 -21 -5 -163 -86 -191 -108 -54 -45 -163 -160 -169 -179 -4 -11
-10 -20 -15 -20 -4 0 -13 -12 -19 -27 -7 -16 -20 -44 -31 -63 -21 -39 -65
-169 -59 -174 2 -2 141 -54 309 -116 168 -62 324 -121 347 -131 24 -11 47 -19
53 -19 5 0 24 -6 42 -14 18 -8 78 -31 133 -51 55 -20 109 -40 120 -45 11 -5
108 -41 215 -80 107 -39 209 -77 225 -85 17 -7 48 -18 70 -25 22 -7 54 -18 70
-25 17 -8 62 -25 100 -38 87 -31 1652 -614 1680 -626 11 -5 52 -20 90 -34 212
-78 1607 -597 1630 -607 11 -5 63 -25 115 -44 86 -31 298 -110 1028 -382 140
-52 265 -102 278 -112 13 -9 32 -35 43 -57 18 -38 19 -65 17 -520 l-1 -480
-24 -39 c-29 -46 -96 -80 -144 -73 -33 5 -78 21 -307 107 -74 28 -139 52 -145
54 -5 2 -17 6 -25 9 -52 22 -288 109 -304 112 -10 2 -24 9 -32 16 -8 6 -14 9
-14 5 0 -3 -25 5 -55 19 -31 13 -56 24 -58 24 -4 0 -28 8 -172 62 -77 29 -180
67 -230 85 -49 17 -241 89 -425 158 -184 70 -339 128 -345 129 -12 3 -153 55
-180 67 -11 5 -72 27 -135 50 -63 23 -124 46 -135 50 -11 5 -144 54 -295 110
-151 56 -284 105 -295 110 -11 5 -137 52 -280 105 -143 53 -282 105 -310 115
-27 10 -104 39 -170 64 -66 24 -169 63 -230 86 -60 23 -114 43 -120 44 -5 2
-23 8 -40 15 -39 16 -107 41 -120 44 -5 2 -14 5 -20 8 -8 5 -76 30 -95 34 -9
3 -44 17 -75 30 -16 8 -43 17 -60 21 -16 4 -34 10 -40 14 -5 3 -44 19 -85 34
-41 15 -109 41 -151 57 -42 16 -78 29 -82 29 -3 0 -18 5 -34 12 -15 6 -30 12
-33 12 -8 2 -73 27 -95 37 -11 5 -33 13 -50 18 -16 6 -95 35 -175 66 -80 31
-153 58 -163 60 -9 2 -22 7 -27 10 -5 3 -18 8 -27 10 -10 2 -36 11 -58 21 -22
10 -44 18 -50 20 -5 1 -46 15 -90 32 -44 17 -154 58 -245 92 -91 34 -200 75
-242 91 -43 16 -82 29 -88 29 -7 0 -10 -138 -10 -419 l0 -420 78 -29 c42 -16
147 -55 232 -87 85 -31 171 -63 190 -70 19 -8 109 -42 200 -76 91 -33 217 -80
280 -104 63 -24 336 -125 605 -225 270 -100 519 -193 555 -207 36 -14 90 -34
120 -45 30 -11 71 -26 90 -34 19 -7 303 -113 630 -235 327 -122 624 -233 660
-246 36 -13 70 -26 75 -27 6 -2 17 -6 25 -9 8 -4 89 -34 180 -67 91 -33 174
-64 185 -69 11 -5 36 -14 55 -21 19 -7 49 -19 67 -26 17 -8 34 -14 39 -14 4 0
41 -13 83 -30 42 -16 175 -66 296 -110 121 -45 272 -101 335 -125 253 -95 446
-167 665 -248 127 -47 364 -135 527 -196 163 -61 301 -111 306 -111 23 0 92
-74 101 -108 12 -47 11 -1097 -1 -1133 -18 -54 -99 -106 -223 -143 -5 -2 -19
-7 -30 -11 -79 -32 -114 -43 -119 -38 -3 4 -6 1 -6 -5 0 -7 -3 -11 -7 -10 -5
0 -15 -2 -23 -5 -8 -4 -76 -29 -150 -56 -74 -27 -270 -100 -435 -161 -165 -62
-306 -113 -312 -113 -7 0 -13 -5 -13 -10 0 -6 -3 -7 -7 -4 -3 4 -11 3 -17 -2
-9 -7 -68 -29 -96 -36 -3 -1 -12 -5 -20 -8 -8 -3 -44 -18 -80 -31 l-65 -25
685 2 c675 3 686 3 755 25 123 39 221 94 332 187 27 22 121 142 147 186 41 71
74 164 91 252 13 70 15 416 12 2881 -1 1541 -5 2810 -9 2821 -3 11 -9 34 -13
50 -7 31 -12 44 -39 107 -9 20 -16 39 -16 43 0 3 -21 39 -46 78 -53 82 -148
180 -214 223 -25 16 -47 31 -50 34 -7 7 -121 62 -134 64 -6 2 -36 11 -66 22
-54 19 -122 19 -2886 22 -1557 1 -2832 0 -2835 -2z"/>
<path d="M4 2667 c-8 -21 1 -1989 9 -2022 50 -192 115 -308 246 -433 114 -108
312 -200 441 -204 19 0 100 20 180 45 195 61 323 100 335 103 6 1 165 50 355
109 326 101 382 118 533 164 34 10 233 71 442 136 345 106 477 147 865 265 69
21 215 66 325 100 110 34 252 77 315 96 165 51 212 71 239 105 29 37 38 103
21 155 -13 39 -54 84 -77 84 -7 0 -13 5 -13 12 0 6 -3 9 -6 5 -3 -3 -30 3 -60
13 -30 11 -54 16 -54 13 0 -3 -6 -1 -12 5 -7 6 -17 11 -23 12 -5 0 -35 8 -65
17 -30 10 -57 17 -60 18 -3 0 -52 16 -110 34 -58 18 -109 34 -115 36 -5 1 -17
5 -25 8 -8 3 -33 11 -55 17 -22 6 -47 14 -55 17 -8 3 -20 7 -26 8 -7 2 -139
42 -295 90 -156 48 -288 88 -294 90 -5 1 -17 5 -25 8 -16 5 -172 53 -350 107
-58 17 -116 35 -130 40 -24 8 -227 72 -242 76 -5 1 -9 2 -10 4 -2 1 -10 3 -18
5 -18 3 -215 62 -250 75 -14 5 -72 23 -130 40 -58 17 -116 36 -130 41 -14 5
-34 11 -45 13 -11 2 -40 11 -65 19 -25 8 -92 29 -150 47 -104 31 -281 86 -455
140 -49 15 -124 37 -165 50 -41 12 -86 26 -100 30 -14 5 -79 25 -145 45 -66
20 -127 39 -135 42 -8 4 -22 8 -30 9 -28 4 -345 105 -363 115 -13 7 -19 6 -23
-4z"/>
</g>
</svg>
